<svg xmlns="http://www.w3.org/2000/svg" xmlns:xlink="http://www.w3.org/1999/xlink" viewBox="0 0 32 32"><defs><polygon id="a" points=".247 .339 5.333 .339 5.333 7.529 .247 7.529"/></defs><g fill="none" fill-rule="evenodd" transform="translate(0 11)"><path fill="#F28D2D" d="M1.12 4.53c0-.04 0-.05.04-.05H2.7c.32 0 .6.12.83.35.23.23.35.52.35.83v.2a1 1 0 0 1-.32.75c-.2.21-.46.32-.76.32H1.16c-.04 0-.04 0-.04-.05V4.53zm2.1-1.17c-.19.2-.45.31-.78.31H1.16c-.04 0-.04 0-.04-.05V1.66c0-.04 0-.05.04-.05h1.39c.28 0 .5.1.69.28.2.2.29.42.29.7 0 .31-.1.56-.3.77zM4.38 4.6a1.81 1.81 0 0 0-.59-.6l-.01-.03c0-.02 0-.03.02-.04.37-.37.55-.81.55-1.35 0-.49-.17-.9-.53-1.26A1.7 1.7 0 0 0 2.55.8H.47C.36.8.3.85.3.96v6.61c0 .1.06.17.17.17h2.32c.52 0 .97-.18 1.33-.55.38-.37.56-.82.56-1.33v-.2c0-.37-.1-.73-.3-1.06zM6.51.8h-.55c-.11 0-.17.05-.17.16v6.61c0 .1.06.17.17.17h.55c.1 0 .16-.07.16-.17V.97c0-.11-.06-.17-.16-.17m4.16 3.42H9.02c-.05 0-.07-.02-.07-.07v-2.4c0-.06.01-.07.07-.07h1.65c.33 0 .6.11.83.34.23.25.35.52.35.83v.2c0 .31-.12.58-.35.82-.24.23-.5.35-.83.35m1.46-2.83c-.4-.4-.88-.6-1.46-.6H8.24c-.11 0-.17.06-.17.17v6.61c0 .1.06.17.17.17h.55c.1 0 .16-.07.16-.17v-2.4c0-.06.01-.07.07-.07h1.65a2 2 0 0 0 1.46-.6c.4-.4.6-.9.6-1.46v-.19a2 2 0 0 0-.6-1.46"/><path fill="#A6CA56" d="M24.93 3.87h-1.88c-.1 0-.17.06-.17.17v.54c0 .1.07.17.17.17h1.1c.06 0 .07.01.07.07v1.5l-.02.06c-.4.4-.88.59-1.46.59-.45 0-.84-.16-1.17-.48a1.58 1.58 0 0 1-.5-1.18v-2.1c0-.46.17-.84.5-1.17.32-.33.7-.48 1.17-.48.54 0 1.02.2 1.44.6.08.07.17.07.24 0l.37-.4a.16.16 0 0 0 .06-.1.16.16 0 0 0-.05-.12 2.72 2.72 0 0 0-2.06-.87c-.7 0-1.3.25-1.8.75s-.74 1.09-.74 1.8V5.3c0 .7.25 1.3.74 1.8.5.5 1.1.74 1.8.74a2.9 2.9 0 0 0 2.3-1.08.23.23 0 0 0 .06-.17V4.04c0-.12-.06-.17-.17-.17"/><g transform="translate(25.882 .33)"><mask id="b" fill="white"><use xlink:href="#a"/></mask><path fill="#A6CA56" d="M2.79 6.65c-.46 0-.84-.16-1.17-.5-.33-.31-.49-.7-.49-1.16v-2.1c0-.47.16-.86.5-1.19.31-.32.7-.48 1.16-.48.46 0 .85.16 1.17.48.33.33.5.72.5 1.18v2.1c0 .47-.17.86-.5 1.18-.33.33-.71.49-1.17.49m1.8-5.57c-.5-.5-1.1-.74-1.8-.74s-1.3.24-1.8.74-.74 1.1-.74 1.8v2.1c0 .7.25 1.31.74 1.8.5.5 1.1.75 1.8.75s1.3-.24 1.8-.75c.5-.49.74-1.1.74-1.8v-2.1c0-.7-.24-1.3-.74-1.8" mask="url(#b)"/></g><path fill="#807469" d="M17.21 2.13c0-.83-.58-1.08-1.3-1.08-.82 0-1.39.21-1.39 1.08v.06c0 .38.08.65 1.06 1.78l.35-.2c1.05-.63 1.28-1 1.28-1.58v-.06zm-.78 3.4c-.37-.4-.69-.74-.94-1.03-.97.6-1.27.92-1.27 1.65v.06c0 .93.86 1.27 1.71 1.27.75 0 1.3-.27 1.69-.68l-1.19-1.27zm2.48 2.2h-.31c-.06 0-.1 0-.15-.06l-.57-.58c-.46.48-1.1.77-1.95.77-.95 0-2.15-.35-2.15-1.65v-.06c0-.78.36-1.26 1.45-1.96-1.04-1.21-1.15-1.57-1.15-2v-.06c0-1.08.8-1.46 1.83-1.46.86 0 1.74.38 1.74 1.46v.06c0 .72-.39 1.23-1.5 1.9l-.31.19.9.96 1.13 1.22a3.7 3.7 0 0 0 .49-1.98v-.1c0-.11.04-.19.14-.19h.14c.1 0 .15.08.15.18v.1a4 4 0 0 1-.63 2.3l.8.84.02.06c0 .03-.02.06-.07.06z"/></g></svg>